# xmcd
#
# Track frame offsets: 
#        150
#        15586
#        30982
#        46635
#        59973
#        73730
#        87433
#        102926
#        116523
#        132396
#        146572
#        160541
#        173248
#        188496
#        202181
#        218298
#        233791
#        248219
#        258127
#
# Disc length: 3598 seconds
#
# Revision: 0
# Processed by: cddbd v1.5.2PL0 Copyright (c) Steve Scherf et al.
# Submitted via: ExactAudioCopy v1.0b3
#
DISCID=010e0c13
DTITLE=美空ひばり - ミソラ ヒバリ アーリーソング コレクション 1949-1957 Disc 2 COCP-34306-07
DYEAR=1900
DGENRE=JPop
TTITLE0=上海 (SHANGHAI) 
TTITLE1=エル・チョクロ (EL CHOCLO) 
TTITLE2=アゲイン (AGAIN) 
TTITLE3=チャルメラそば屋 (THE SOBA SONG) 
TTITLE4=ゆうべはどうしたの (WHATSA MALLA U) 
TTITLE5=タンゴに二人を (TAKES TWO TO TANGO) 
TTITLE6=スターダスト (STARDUST) 
TTITLE7=ジングル・ベル (JINGLE BELLS) 
TTITLE8=クリスマス・ワルツ (X’MAS WALTZ) 
TTITLE9=可愛いティティナ (PRETTY TITINA) 
TTITLE10=たゞ何となく (TRANSITORY LOVE) 
TTITLE11=雨によせて (FOR THE RAIN) 
TTITLE12=娘とリボン (GIRL AND RIBBON) 
TTITLE13=牧場は牛ばかり (I SAW A PRETTY COWBOY) 
TTITLE14=私のスヰートホーム (MY SWEET HOME) 
TTITLE15=薔薇色の人生 (LA VIE EN ROSE) 
TTITLE16=A列車で行こう (TAKE THE “A” TRAIN) 
TTITLE17=愛のタンゴ (I CAN’T TELL A WALTZ FROM TANGO)
TTITLE18=愛さないなら棄てて (LOVE ME OR LEAVE ME) 
EXTD=
EXTT0=
EXTT1=
EXTT2=
EXTT3=
EXTT4=
EXTT5=
EXTT6=
EXTT7=
EXTT8=
EXTT9=
EXTT10=
EXTT11=
EXTT12=
EXTT13=
EXTT14=
EXTT15=
EXTT16=
EXTT17=
EXTT18=
PLAYORDER=
